<svg width="134" height="64" viewBox="0 0 134 64" fill="none" xmlns="http://www.w3.org/2000/svg">
<g clip-path="url(#clip0_118_773)">
<path d="M106.757 30.9148V31.0052H104.414L99.8567 25.1401C98.5893 25.9281 97.9876 27.5559 98.0772 31.0052H95.9648C95.8752 26.6904 96.8354 24.7525 98.7685 23.719L95.952 20.0888V19.9984H98.282L102.84 25.8635C104.107 25.0884 104.734 23.4606 104.645 19.9984H106.757C106.847 24.3262 105.861 26.2511 103.941 27.2846L106.77 30.9148H106.757ZM111.263 19.9984V26.2124L109.151 26.5612V19.9984H111.263ZM118.471 23.0214V31.0052H116.858L116.551 28.7703H116.499C115.936 30.2172 114.899 31.0052 113.478 31.0052H112.71V29.0028H113.478C115.424 29.0028 116.435 27.6334 116.435 26.0186V23.4736C116.435 22.3496 115.949 21.8199 114.912 21.8199H113.773V19.9984H115.296C117.421 19.9984 118.471 21.0061 118.471 23.0214ZM84.9038 47.8385H82.7914V33.7699H84.9038V47.8385ZM90.0503 44.7767H87.9379V33.7699H90.0503V44.7767ZM101.444 44.7767H99.4086V39.1829C99.4086 36.6379 98.1412 35.346 96.0673 35.346C94.8511 35.346 93.8141 35.7465 92.8283 36.2632L92.1242 34.7646C93.6093 33.9249 95.0303 33.6278 96.4129 33.6278C99.319 33.6278 101.444 35.2814 101.444 39.0925V44.7767ZM106.463 44.7767H104.35V33.7699H106.463V44.7767ZM119.009 33.7699V35.5914C117.37 35.5914 116.576 36.5604 116.576 38.524V44.7767H114.464V38.5757C114.464 37.0771 114.95 36.134 115.731 35.5914H108.805V33.7699H118.996H119.009ZM90.3959 30.0234C89.9478 30.411 89.3973 30.7081 88.7444 30.9277C88.0915 31.1474 87.4002 31.2507 86.6577 31.2507C86.0176 31.2507 85.4415 31.1732 84.9166 31.0052C84.3917 30.8373 83.9564 30.6177 83.5852 30.3205C83.2139 30.0234 82.9323 29.6617 82.7402 29.2483C82.5482 28.8349 82.4458 28.3569 82.4458 27.8401C82.4458 27.4913 82.4842 27.1683 82.5738 26.8712C82.6634 26.5741 82.8042 26.2899 82.9835 26.0315C83.1627 25.7731 83.3931 25.5147 83.6748 25.2822C83.9564 25.0497 84.2893 24.8171 84.6734 24.6104C84.6734 24.6104 84.7118 24.5846 84.763 24.5587C84.8142 24.5329 84.8654 24.4941 84.9294 24.4683C84.9934 24.4425 85.0446 24.4037 85.0958 24.3779C85.147 24.352 85.1854 24.3262 85.1982 24.3133C84.9166 24.0291 84.6862 23.7578 84.4941 23.5252C84.3021 23.2927 84.1485 23.0472 84.0332 22.8276C83.918 22.608 83.8284 22.3884 83.7772 22.1817C83.726 21.975 83.7004 21.7554 83.7004 21.5357C83.7004 21.1223 83.79 20.7477 83.9564 20.3989C84.1229 20.0501 84.3661 19.7529 84.6734 19.4946C84.9806 19.2362 85.3391 19.0424 85.7615 18.9003C86.184 18.7582 86.6321 18.6936 87.1314 18.6936C87.6307 18.6936 88.0659 18.7582 88.4884 18.9003C88.9109 19.0424 89.2565 19.2233 89.551 19.4687C89.8454 19.7142 90.0759 20.0113 90.2423 20.3472C90.4087 20.6831 90.4983 21.0707 90.4983 21.4711C90.4983 22.1042 90.3063 22.6726 89.9094 23.1893C89.5126 23.7061 88.8981 24.197 88.0531 24.6492L90.3575 27.065C90.4983 26.8066 90.6136 26.5095 90.6776 26.1478C90.7416 25.786 90.78 25.3597 90.78 24.843V24.2487H92.8155V25.0109C92.8155 25.7473 92.7259 26.4191 92.5467 27.0392C92.3674 27.6593 92.1114 28.1889 91.7913 28.6282L94.0189 31.0052H91.2921L90.3703 30.0234H90.3959ZM86.0048 25.8119C85.5695 26.0573 85.2366 26.3286 85.0318 26.6258C84.827 26.9229 84.7118 27.2588 84.7118 27.6334C84.7118 27.8918 84.763 28.1373 84.8654 28.3569C84.9678 28.5765 85.1214 28.7574 85.3135 28.9253C85.5055 29.0933 85.7359 29.1966 86.0048 29.287C86.2736 29.3775 86.5681 29.4162 86.9009 29.4162C87.3362 29.4162 87.7587 29.3387 88.1555 29.1966C88.5524 29.0545 88.8725 28.8478 89.1157 28.5894L86.3632 25.6568C86.3632 25.6568 86.2608 25.6956 86.184 25.7344C86.1072 25.7731 86.056 25.799 86.0048 25.8248V25.8119ZM86.9393 23.4606C87.4898 23.1893 87.8867 22.9051 88.1299 22.6209C88.3732 22.3367 88.4884 22.0137 88.4884 21.652C88.4884 21.4582 88.45 21.2903 88.386 21.1352C88.322 20.9802 88.2324 20.8381 88.1171 20.7218C88.0019 20.6056 87.8611 20.5151 87.6947 20.4505C87.5282 20.386 87.349 20.3601 87.157 20.3601C86.9649 20.3601 86.7857 20.386 86.6193 20.4505C86.4529 20.5151 86.312 20.6056 86.1968 20.7218C86.0816 20.8381 85.9792 20.9673 85.9152 21.1223C85.8512 21.2774 85.8127 21.4582 85.8127 21.6391C85.8127 21.7812 85.8384 21.9104 85.8768 22.0525C85.9152 22.1946 85.9792 22.3238 86.0688 22.4659C86.1584 22.608 86.2736 22.763 86.4145 22.918C86.5553 23.0731 86.7345 23.2539 86.9393 23.4606ZM10.4978 39.1183V37.5293L11.8932 37.2451V26.9358L10.4978 26.6516V25.0626H15.8491V26.6516L14.3128 26.9358V37.1159H18.1534L18.2943 35.023H20.1378V39.1312H10.485L10.4978 39.1183ZM21.5332 39.1183V37.5293L22.9286 37.2451V26.9358L21.5332 26.6516V25.0626H31.4677V28.7703H29.5986L29.4705 27.0779H25.3354V30.8373H29.7906V32.8785H25.3354V37.1159H29.701L29.829 35.3847H31.6725V39.1312H21.5204L21.5332 39.1183ZM38.6497 39.1183L34.4506 26.7937L33.3368 26.6387V25.0497H38.2528V26.6387L37.075 26.8454L39.6866 35.2814L39.9043 36.1211H39.9555L40.1731 35.2943L42.7976 26.8325L41.4533 26.6387V25.0497H46.1901V26.6387L45.0507 26.7937L41.0565 39.1183H38.6369H38.6497ZM50.9141 39.1183V37.5293L52.3095 37.2451V34.235L48.4433 26.8454L47.2399 26.6516V25.0626H52.2455V26.6516L51.0933 26.8325L53.3721 31.5478L53.5642 31.9871H53.6026L53.7946 31.5608L56.2782 26.8325L54.8444 26.6516V25.0626H59.7604V26.6516L58.5186 26.8454L54.7035 34.0412V37.258L56.1118 37.5422V39.1312H50.9013L50.9141 39.1183ZM68.9651 10.8131V53.174H71.0775V10.8131H68.9651ZM131.824 2.19621V61.8038H2.17636V2.19621H131.824ZM134 0H0V64H134V0Z" fill="#0061AA"/>
</g>
<defs>
<clipPath id="clip0_118_773">
<rect width="134" height="64" fill="white"/>
</clipPath>
</defs>
</svg>
