<svg width="23" height="26" viewBox="0 0 23 26" fill="none" xmlns="http://www.w3.org/2000/svg">
<path fill-rule="evenodd" clip-rule="evenodd" d="M18.6965 11.9957C18.8124 12.1079 18.8154 12.2927 18.7033 12.4086L10.9714 20.3982C10.9164 20.4551 10.8407 20.4871 10.7616 20.4871C10.6825 20.4871 10.6068 20.4551 10.5518 20.3982L2.81983 12.4086C2.7077 12.2927 2.71073 12.1079 2.8266 11.9957C2.94247 11.8836 3.1273 11.8866 3.23943 12.0025L10.4696 19.4737L10.4696 1.01998C10.4696 0.858741 10.6003 0.728027 10.7616 0.728027C10.9228 0.728027 11.0535 0.858741 11.0535 1.01998L11.0535 19.4737L18.2837 12.0025C18.3958 11.8866 18.5807 11.8836 18.6965 11.9957Z" fill="#F2E9D1"/>
<path fill-rule="evenodd" clip-rule="evenodd" d="M0.263916 25.6138C0.263916 25.4529 0.394316 25.3225 0.555173 25.3225L21.7221 25.3225C21.883 25.3225 22.0134 25.4529 22.0134 25.6138C22.0134 25.7746 21.883 25.905 21.7221 25.905L0.555173 25.905C0.394316 25.905 0.263916 25.7746 0.263916 25.6138Z" fill="white"/>
</svg>
