<svg width="40" height="43" viewBox="0 0 40 43" fill="none" xmlns="http://www.w3.org/2000/svg">
<path d="M20 0C8.97333 0 0 9.61815 0 21.4372C0 33.2562 8.97333 42.8744 20 42.8744C31.0267 42.8744 40 33.2562 40 21.4372C40 9.61815 31.0267 0 20 0ZM20 3.57286C29.225 3.57286 36.6667 11.5493 36.6667 21.4372C36.6707 25.7138 35.24 29.8495 32.6356 33.0894C30.0311 36.3293 26.4267 38.4574 22.48 39.0854V26.6464H27.2267L27.9717 21.4783H22.48V18.6557C22.48 16.512 23.1383 14.6059 25.01 14.6059H28.0183V10.0969C27.49 10.0201 26.3717 9.85396 24.2583 9.85396C19.845 9.85396 17.2583 12.3514 17.2583 18.043V21.4783H12.7217V26.6464H17.2583V39.0407C13.3663 38.3541 9.82873 36.2065 7.27782 32.9817C4.72691 29.757 3.32881 25.6651 3.33333 21.4372C3.33333 11.5493 10.775 3.57286 20 3.57286Z" fill="#0061AA"/>
</svg>
