<svg width="40" height="43" viewBox="0 0 40 43" fill="none" xmlns="http://www.w3.org/2000/svg">
<path d="M20 11.7694C18.2161 11.7694 16.4722 12.3364 14.989 13.3987C13.5057 14.4611 12.3496 15.971 11.667 17.7375C10.9843 19.5041 10.8057 21.4479 11.1537 23.3233C11.5017 25.1986 12.3608 26.9213 13.6222 28.2733C14.8836 29.6254 16.4907 30.5461 18.2404 30.9192C19.99 31.2922 21.8035 31.1008 23.4517 30.369C25.0998 29.6373 26.5084 28.3982 27.4995 26.8083C28.4906 25.2185 29.0196 23.3493 29.0196 21.4372C29.0165 18.8742 28.0652 16.4171 26.3744 14.6047C24.6836 12.7924 22.3912 11.7728 20 11.7694ZM20 28.5829C18.6815 28.5829 17.3925 28.1638 16.2962 27.3786C15.1999 26.5935 14.3454 25.4775 13.8408 24.1717C13.3362 22.866 13.2042 21.4293 13.4614 20.0431C13.7187 18.657 14.3536 17.3837 15.286 16.3844C16.2183 15.385 17.4062 14.7045 18.6994 14.4288C19.9926 14.153 21.333 14.2946 22.5512 14.8354C23.7694 15.3762 24.8106 16.2921 25.5431 17.4672C26.2757 18.6423 26.6667 20.0239 26.6667 21.4372C26.6667 23.3324 25.9643 25.1499 24.714 26.49C23.4638 27.8301 21.7681 28.5829 20 28.5829ZM29.4118 0H10.5882C7.78102 0.00333771 5.08967 1.20011 3.10466 3.32776C1.11966 5.45541 0.00311395 8.34016 0 11.3491V31.5253C0.00311395 34.5342 1.11966 37.419 3.10466 39.5466C5.08967 41.6743 7.78102 42.871 10.5882 42.8744H29.4118C32.219 42.871 34.9103 41.6743 36.8953 39.5466C38.8803 37.419 39.9969 34.5342 40 31.5253V11.3491C39.9969 8.34016 38.8803 5.45541 36.8953 3.32776C34.9103 1.20011 32.219 0.00333771 29.4118 0ZM37.6471 31.5253C37.6471 33.8664 36.7794 36.1116 35.235 37.767C33.6906 39.4224 31.5959 40.3524 29.4118 40.3524H10.5882C8.4041 40.3524 6.30942 39.4224 4.765 37.767C3.22059 36.1116 2.35294 33.8664 2.35294 31.5253V11.3491C2.35294 9.00801 3.22059 6.76281 4.765 5.10741C6.30942 3.45202 8.4041 2.52202 10.5882 2.52202H29.4118C31.5959 2.52202 33.6906 3.45202 35.235 5.10741C36.7794 6.76281 37.6471 9.00801 37.6471 11.3491V31.5253ZM32.1569 10.5084C32.1569 10.9241 32.0419 11.3304 31.8264 11.6761C31.611 12.0217 31.3047 12.2911 30.9464 12.4501C30.5882 12.6092 30.1939 12.6508 29.8136 12.5697C29.4332 12.4886 29.0838 12.2885 28.8096 11.9945C28.5354 11.7006 28.3486 11.3261 28.273 10.9184C28.1973 10.5108 28.2361 10.0882 28.3846 9.70415C28.533 9.32011 28.7843 8.99187 29.1067 8.76094C29.4292 8.53 29.8083 8.40674 30.1961 8.40674C30.7161 8.40674 31.2148 8.62817 31.5826 9.02231C31.9503 9.41645 32.1569 9.95103 32.1569 10.5084Z" fill="#0061AA"/>
</svg>
