<svg width="173" height="122" viewBox="0 0 173 122" fill="none" xmlns="http://www.w3.org/2000/svg">
<g clip-path="url(#clip0_118_851)">
<path d="M86.4924 122C74.941 122 64.5975 115.778 59.1314 105.847H16.0663V88.408C6.19098 82.9128 0 72.5581 0 60.9924C0 49.4267 6.19098 39.0721 16.0663 33.5769V16.1375H59.1314C64.5975 6.22186 74.941 0 86.4924 0C98.0439 0 108.387 6.22186 113.854 16.1526H156.919V33.592C166.794 39.0872 172.985 49.4419 172.985 61.0076C172.985 72.5733 166.794 82.9279 156.919 88.4231V105.863H113.854C108.387 115.793 98.0439 122.015 86.4924 122.015V122Z" fill="#0061AA"/>
<path d="M46.8853 87.7418H45.6471V77.478H46.8853V87.7418Z" fill="white"/>
<path d="M50.4791 85.4257H49.2409V77.478H50.4791V85.4257Z" fill="white"/>
<path d="M58.8143 85.4257H57.6063V81.3686C57.6063 79.3552 56.5946 78.3712 54.9638 78.3712C54.0578 78.3712 53.2877 78.6437 52.5327 79.0524L52.1099 78.1593C53.1669 77.5689 54.1786 77.3569 55.1601 77.3569C57.2892 77.3569 58.8143 78.5529 58.8143 81.308V85.4257Z" fill="white"/>
<path d="M65.2619 85.5922C62.4533 85.5922 60.732 83.8664 60.732 81.081V77.478H61.9702V81.1112C61.9702 83.2003 63.2385 84.5325 65.2468 84.5325C67.2551 84.5325 68.5235 83.2003 68.5235 81.1112V77.478H69.7617V81.081C69.7617 83.8664 68.0403 85.5922 65.2317 85.5922H65.2619ZM64.6428 77.478H65.881V82.3072L64.6428 82.5797V77.4932V77.478Z" fill="white"/>
<path d="M71.8455 77.478H75.2581C77.8553 77.478 79.0331 78.7194 79.0331 81.4594V85.4408H77.7949V81.4594C77.7949 79.4309 77.0097 78.5377 75.2581 78.5377H71.8455V77.478ZM73.1743 81.0053V85.4257H71.9361V81.1869L73.1743 81.0204V81.0053Z" fill="white"/>
<path d="M93.3327 81.2929V85.4257H92.0945V81.2929C92.0945 79.4157 91.3395 78.5377 89.5879 78.5377H87.64V83.6242C87.64 84.911 86.9454 85.5014 85.9489 85.5014C85.4808 85.5014 84.8466 85.4105 84.4842 85.2743L84.6503 84.2903C84.9221 84.3811 85.1939 84.4417 85.5563 84.4417C86.1603 84.4417 86.4019 84.0784 86.4019 83.276V78.5226H85.2694V77.4629H89.603C92.2002 77.4629 93.3176 78.5983 93.3176 81.2778L93.3327 81.2929Z" fill="white"/>
<path d="M101.185 77.4782V77.6144L98.1496 85.4409H96.8359V85.3804L99.5539 78.5379H94.4954V76.146H95.7336V77.4782H101.2H101.185Z" fill="white"/>
<path d="M106.379 81.4291C107.391 80.9447 107.934 79.6882 107.859 77.478H109.067C109.142 80.1272 108.402 81.6411 106.998 82.2769L109.263 85.3197V85.4408H102.423V84.3811H107.225L102.06 77.5234V77.478H103.45L106.379 81.4291Z" fill="white"/>
<path d="M110.728 85.4257V84.366H116.088V81.2021C116.088 79.5369 115.364 78.3712 113.672 78.3712C112.691 78.3712 111.83 78.6891 111 79.1433L110.592 78.2198C111.634 77.6143 112.736 77.3115 113.854 77.3115C116.345 77.3115 117.327 78.7648 117.327 81.1113V84.366H118.504V85.4257H110.728Z" fill="white"/>
<path d="M127.353 81.2626V85.4257H126.115V81.2626C126.115 79.4309 125.329 78.5377 123.623 78.5377H121.222V85.4257H119.984V77.478H123.623C126.16 77.478 127.353 78.6588 127.353 81.2626Z" fill="white"/>
<path d="M86.4925 16.7432L87.7306 21.754L92.7287 22.9802L87.7306 24.2215L86.4925 29.2323L85.2694 24.2215L80.2713 22.9802L85.2694 21.754L86.4925 16.7432Z" fill="white"/>
<path d="M86.4925 92.7529L87.7306 97.7789L92.7287 99.0051L87.7306 100.231L86.4925 105.257L85.2694 100.231L80.2713 99.0051L85.2694 97.7789L86.4925 92.7529Z" fill="white"/>
<path d="M86.4925 117.625C75.7111 117.625 66.1377 111.327 61.8343 101.472H20.4302V85.6982C10.6304 81.3687 4.36388 71.7861 4.36388 60.9925C4.36388 50.1988 10.6304 40.6162 20.4302 36.2867V20.5125H61.8343C66.1377 10.6726 75.7111 4.35986 86.4925 4.35986C97.2738 4.35986 106.847 10.6574 111.151 20.5125H152.555V36.2867C162.355 40.6162 168.621 50.1988 168.621 60.9925C168.621 71.7861 162.355 81.3687 152.555 85.6982V101.472H111.151C106.847 111.312 97.2738 117.625 86.4925 117.625ZM23.6918 98.2025H64.0388L64.4465 99.2319C68.0403 108.406 76.6926 114.34 86.5076 114.34C96.3225 114.34 104.975 108.406 108.569 99.2319L108.976 98.2025H149.323V83.5032L150.35 83.0944C159.486 79.4915 165.39 70.8172 165.39 60.9925C165.39 51.1677 159.486 42.4934 150.35 38.8905L149.323 38.4817V23.7824H108.976L108.569 22.753C104.975 13.5791 96.3225 7.64489 86.5076 7.64489C76.6926 7.64489 68.0403 13.5791 64.4465 22.753L64.0388 23.7824H23.6918V38.4817L22.665 38.8905C13.5295 42.4934 7.62547 51.1677 7.62547 60.9925C7.62547 70.8172 13.5295 79.4915 22.665 83.0944L23.6918 83.5032V98.2025Z" fill="white"/>
<path d="M61.0793 58.6762C60.3243 60.7805 59.3277 62.264 58.0291 63.1875C56.7003 64.1412 54.9487 64.6256 52.8196 64.6256H47.6705C47.1269 64.6256 46.5984 64.5348 46.0397 64.3228C45.8736 64.2623 45.632 64.1866 45.6018 63.5054V39.284C45.632 38.5574 45.9038 38.4665 46.0548 38.4211C46.5833 38.2243 47.1269 38.1335 47.6705 38.1335H48.4255V36.3623H39.3202V38.1335H40.0752C40.6188 38.1335 41.1473 38.2243 41.7362 38.4211C41.8419 38.4514 42.1137 38.5574 42.1439 39.2537V63.4751C42.1137 64.1866 41.8721 64.2926 41.7362 64.338C41.1322 64.5348 40.6037 64.6256 40.0752 64.6256H39.3202V66.4271H57.0627C57.3798 66.4271 57.6969 66.4574 58.014 66.533C58.2556 66.5936 58.5123 66.7298 58.769 66.9418L59.5844 67.6684L59.9619 66.639C60.8679 64.1866 61.7889 61.7796 62.7402 59.3272L62.9969 58.6914L61.3662 57.8739L61.0793 58.6762Z" fill="white"/>
<path d="M66.485 38.1184H67.24C67.7836 38.1184 68.3121 38.2092 68.901 38.406C69.0067 38.4363 69.2785 38.5422 69.3087 39.2386V63.46C69.2785 64.1715 69.0369 64.2774 68.901 64.3229C68.297 64.5196 67.7685 64.6105 67.24 64.6105H66.485V66.4119H75.5903V64.6105H74.8353C74.2917 64.6105 73.7632 64.5196 73.2045 64.3077C73.0384 64.2472 72.7968 64.1715 72.7666 63.4902V39.2689C72.7968 38.5422 73.0686 38.4514 73.2196 38.406C73.7632 38.2092 74.2917 38.1184 74.8353 38.1184H75.5903V36.3472H66.485V38.1184Z" fill="white"/>
<path d="M105.171 58.6762C104.416 60.7805 103.419 62.264 102.121 63.1875C100.792 64.1412 99.0405 64.6256 96.9114 64.6256H91.7623C91.2187 64.6256 90.6902 64.5348 90.1315 64.3228C89.9654 64.2623 89.7238 64.1866 89.6936 63.5054V39.284C89.7238 38.5574 89.9956 38.4665 90.1466 38.4211C90.6902 38.2243 91.2187 38.1335 91.7623 38.1335H92.5173V36.3623H83.4121V38.1335H84.1671C84.7107 38.1335 85.2392 38.2243 85.8281 38.4211C85.9338 38.4514 86.2056 38.5574 86.2358 39.2537V63.4751C86.2056 64.1866 85.964 64.2926 85.8281 64.338C85.2241 64.5348 84.6956 64.6256 84.1671 64.6256H83.4121V66.4271H101.154C101.472 66.4271 101.789 66.4574 102.106 66.533C102.347 66.5936 102.604 66.7298 102.861 66.9418L103.676 67.6684L104.054 66.639C104.96 64.1866 105.881 61.7796 106.832 59.3272L107.089 58.6914L105.458 57.8739L105.171 58.6762Z" fill="white"/>
<path d="M125.556 36.3623V38.1638H126.311C126.507 38.1638 126.734 38.1789 127.021 38.2092L127.398 38.2395C127.791 38.3 128.123 38.4211 128.334 38.4968C128.334 38.4968 128.334 38.5725 128.274 38.6936L121.268 50.7589L112.661 38.739C112.661 38.739 112.585 38.6179 112.57 38.5725C112.676 38.4968 112.932 38.3606 113.431 38.2849C113.929 38.2092 114.337 38.1638 114.609 38.1638H115.364V36.3623H105.171V38.1638H105.926C106.5 38.1638 107.089 38.3152 107.693 38.6179C108.372 38.9812 108.84 39.3294 109.127 39.723L118.746 53.1356V63.5054C118.716 64.232 118.459 64.3228 118.353 64.3683C117.749 64.5651 117.221 64.6559 116.677 64.6559H115.922V66.4574H125.028V64.6559H124.273C123.729 64.6559 123.2 64.5651 122.657 64.3683C122.491 64.3077 122.204 64.2169 122.174 63.5357V52.7117L129.784 39.6927C130.101 39.284 130.569 38.9207 131.249 38.5876C131.853 38.3 132.411 38.1638 132.925 38.1638H133.68V36.3623H125.571H125.556Z" fill="white"/>
</g>
<defs>
<clipPath id="clip0_118_851">
<rect width="173" height="122" fill="white"/>
</clipPath>
</defs>
</svg>
