<svg width="25" height="24" viewBox="0 0 25 24" fill="none" xmlns="http://www.w3.org/2000/svg">
<path fill-rule="evenodd" clip-rule="evenodd" d="M13.0126 21.2927C14.8445 22.28 16.5705 22.7022 18.0741 22.3881C20.7577 21.8275 22.0672 20.4053 22.8003 19.2228C22.8185 19.1934 22.8254 19.1593 22.816 19.1167C22.8058 19.071 22.7765 19.0203 22.7252 18.9821L18.55 15.8678C18.4505 15.7935 18.3116 15.8036 18.2238 15.8914L16.0186 18.0966C15.8191 18.296 15.5246 18.3667 15.2564 18.2795L15.4883 17.5662C15.2564 18.2795 15.2567 18.2796 15.2564 18.2795L15.2538 18.2786L15.2504 18.2775L15.2413 18.2745L15.2141 18.265C15.192 18.2572 15.1621 18.2463 15.1247 18.232C15.0498 18.2033 14.9449 18.1608 14.8128 18.1017C14.5486 17.9836 14.1756 17.7992 13.7162 17.5263C12.7969 16.9802 11.5342 16.0812 10.1061 14.6532C8.67806 13.2251 7.77913 11.9624 7.23307 11.0431C6.96017 10.5837 6.77577 10.2107 6.65762 9.94649C6.59855 9.81439 6.55606 9.70952 6.52735 9.63466C6.513 9.59723 6.5021 9.5673 6.49429 9.54523L6.48487 9.51807L6.48182 9.50898L6.4807 9.50558L6.48023 9.50416C6.48014 9.50387 6.47983 9.50294 7.1931 9.27109L6.47983 9.50294C6.39264 9.23469 6.46332 8.94021 6.66277 8.74076L8.86796 6.53557C8.95575 6.44777 8.96581 6.30884 8.89157 6.20932L5.77725 2.03414C5.73898 1.98284 5.68832 1.95355 5.64262 1.94336C5.60006 1.93387 5.5659 1.94081 5.53656 1.95901C4.354 2.69212 2.93182 4.00158 2.37123 6.68527C2.05715 8.18887 2.47935 9.91479 3.46656 11.7467C4.44901 13.5697 5.94801 15.4159 7.64572 17.1136C9.34344 18.8113 11.1896 20.3103 13.0126 21.2927ZM8.0784 9.44644L9.92862 7.59623C10.5432 6.98165 10.6136 6.00915 10.0939 5.31247L6.97961 1.13729C6.48243 0.470756 5.52661 0.200313 4.74621 0.684115C3.29062 1.58649 1.56413 3.21316 0.902924 6.37856C0.486915 8.37012 1.07571 10.472 2.1461 12.4583C3.22125 14.4534 4.82646 16.4156 6.58506 18.1742C8.34367 19.9328 10.306 21.5381 12.301 22.6132C14.2873 23.6836 16.3892 24.2724 18.3808 23.8564C21.5462 23.1952 23.1728 21.4687 24.0752 20.0131C24.559 19.2327 24.2886 18.2769 23.622 17.7797L19.4469 14.6654C18.7502 14.1457 17.7777 14.2161 17.1631 14.8307L15.3129 16.6809C15.1052 16.5835 14.8241 16.4397 14.4823 16.2366C13.6669 15.7523 12.5038 14.9295 11.1668 13.5925C9.82979 12.2555 9.00704 11.0924 8.52269 10.277C8.31967 9.93527 8.17584 9.65416 8.0784 9.44644Z" fill="white"/>
</svg>
