<svg width="29" height="29" viewBox="0 0 29 29" fill="none" xmlns="http://www.w3.org/2000/svg">
<path fill-rule="evenodd" clip-rule="evenodd" d="M0.137932 14.1377C0.137932 13.5854 0.585647 13.1377 1.13793 13.1377L27.8621 13.1377C28.4144 13.1377 28.8621 13.5854 28.8621 14.1377C28.8621 14.69 28.4144 15.1377 27.8621 15.1377L1.13793 15.1377C0.585647 15.1377 0.137932 14.69 0.137932 14.1377Z" fill="#F2E9D1"/>
<path fill-rule="evenodd" clip-rule="evenodd" d="M14.1379 0.137695C14.6902 0.137695 15.1379 0.585411 15.1379 1.1377L15.1379 27.8618C15.1379 28.4141 14.6902 28.8618 14.1379 28.8618C13.5856 28.8618 13.1379 28.4141 13.1379 27.8618L13.1379 1.1377C13.1379 0.58541 13.5856 0.137695 14.1379 0.137695Z" fill="#F2E9D1"/>
</svg>
