<svg width="69" height="70" viewBox="0 0 69 70" fill="none" xmlns="http://www.w3.org/2000/svg">
<path d="M67.0286 39.2322H13.5851V36.0817C13.5851 35.5418 13.1463 35.1038 12.6056 35.1038H9.12548V3.89731C9.12548 2.90782 9.93119 2.09571 10.9223 2.08646L20.0424 2.00008C20.5345 2.00085 20.9956 2.18055 21.3394 2.52066C21.6839 2.86155 21.8732 3.31966 21.8732 3.81094V7.08328H20.7639C20.2231 7.08328 19.7844 7.52134 19.7844 8.06121V10.5623C17.436 11.703 15.8137 14.1085 15.8137 16.8864C15.8137 17.4263 16.2525 17.8644 16.7933 17.8644H28.9129C29.4537 17.8644 29.8925 17.4263 29.8925 16.8864C29.8925 14.1092 28.2702 11.703 25.9218 10.5631V8.06198C25.9218 7.52211 25.4831 7.08405 24.9423 7.08405H23.8315V3.81016C23.8315 2.79291 23.4359 1.8412 22.7175 1.1309C21.9991 0.420591 21.0366 0.0311172 20.0231 0.0442282L10.903 0.130606C8.84275 0.149887 7.16643 1.83966 7.16643 3.89654V35.1038H3.44996C2.90922 35.1038 2.47044 35.5418 2.47044 36.0817V39.2322H1.97063C0.883734 39.2322 0 40.1145 0 41.1996V43.3482C0 44.4334 0.883734 45.3157 1.97063 45.3157H2.47044V57.5351C2.47044 61.2247 5.30858 64.2641 8.92 64.5934V66.0125C8.92 67.6838 10.2819 69.0435 11.9559 69.0435C13.6299 69.0435 14.9918 67.6838 14.9918 66.0125V64.6243H53.8043V66.0125C53.8043 67.6838 55.1662 69.0435 56.8402 69.0435C58.5142 69.0435 59.8761 67.6838 59.8761 66.0125V64.6089C63.584 64.3775 66.5296 61.2933 66.5296 57.5351V45.3157H67.0294C68.1155 45.3157 69 44.4334 69 43.3482V41.1996C68.9992 40.1152 68.1155 39.2322 67.0286 39.2322ZM27.8384 15.9077H17.8663C18.3236 13.5771 20.3854 11.8133 22.8519 11.8133C25.3185 11.8133 27.3803 13.5771 27.8384 15.9077ZM23.962 9.94533C23.6005 9.88826 23.2297 9.85741 22.8527 9.85741C22.475 9.85741 22.1049 9.88826 21.7434 9.94533V9.03759H23.9628L23.962 9.94533ZM4.42871 37.0604H11.626V39.2329H4.42871V37.0604ZM13.032 66.0133C13.032 66.6064 12.5492 67.0884 11.9551 67.0884C11.3611 67.0884 10.8783 66.6064 10.8783 66.0133V64.6251H13.032V66.0133ZM56.8402 67.0884C56.2461 67.0884 55.7633 66.6064 55.7633 66.0133V64.6251H57.917V66.0133C57.917 66.6064 57.4334 67.0884 56.8402 67.0884ZM64.5705 57.5351C64.5705 60.3663 62.2638 62.6692 59.428 62.6692H9.57121C6.73538 62.6692 4.42871 60.3663 4.42871 57.5351V45.3157H64.5697L64.5705 57.5351ZM67.041 43.3482C67.041 43.3529 67.0332 43.3598 67.0294 43.3598H1.97063C1.966 43.3598 1.95905 43.3521 1.95905 43.3482V41.1996C1.95905 41.1957 1.96677 41.188 1.97063 41.188H67.0286C67.0325 41.188 67.0402 41.1957 67.0402 41.1996L67.041 43.3482ZM19.4414 27.9953C19.4414 28.5352 19.0026 28.9732 18.4619 28.9732C17.9211 28.9732 17.4823 28.5352 17.4823 27.9953V25.7826C17.4823 25.2428 17.9211 24.8047 18.4619 24.8047C19.0026 24.8047 19.4414 25.2428 19.4414 25.7826V27.9953ZM19.4414 31.2993V33.5119C19.4414 34.0518 19.0026 34.4899 18.4619 34.4899C17.9211 34.4899 17.4823 34.0518 17.4823 33.5119V31.2993C17.4823 30.7594 17.9211 30.3213 18.4619 30.3213C19.0034 30.3221 19.4414 30.7594 19.4414 31.2993ZM23.8315 22.4779C23.8315 23.0177 23.3927 23.4558 22.8519 23.4558C22.3112 23.4558 21.8724 23.0177 21.8724 22.4779V20.2652C21.8724 19.7253 22.3112 19.2873 22.8519 19.2873C23.3927 19.2873 23.8315 19.7253 23.8315 20.2652V22.4779ZM28.2215 31.2993V33.5119C28.2215 34.0518 27.7828 34.4899 27.242 34.4899C26.7013 34.4899 26.2625 34.0518 26.2625 33.5119V31.2993C26.2625 30.7594 26.7013 30.3213 27.242 30.3213C27.7828 30.3221 28.2215 30.7594 28.2215 31.2993ZM23.8315 27.9953C23.8315 28.5352 23.3927 28.9732 22.8519 28.9732C22.3112 28.9732 21.8724 28.5352 21.8724 27.9953V25.7826C21.8724 25.2428 22.3112 24.8047 22.8519 24.8047C23.3927 24.8047 23.8315 25.2428 23.8315 25.7826V27.9953ZM28.2215 22.4779C28.2215 23.0177 27.7828 23.4558 27.242 23.4558C26.7013 23.4558 26.2625 23.0177 26.2625 22.4779V20.2652C26.2625 19.7253 26.7013 19.2873 27.242 19.2873C27.7828 19.2873 28.2215 19.7253 28.2215 20.2652V22.4779ZM28.2215 27.9953C28.2215 28.5352 27.7828 28.9732 27.242 28.9732C26.7013 28.9732 26.2625 28.5352 26.2625 27.9953V25.7826C26.2625 25.2428 26.7013 24.8047 27.242 24.8047C27.7828 24.8047 28.2215 25.2428 28.2215 25.7826V27.9953ZM19.4414 22.4779C19.4414 23.0177 19.0026 23.4558 18.4619 23.4558C17.9211 23.4558 17.4823 23.0177 17.4823 22.4779V20.2652C17.4823 19.7253 17.9211 19.2873 18.4619 19.2873C19.0026 19.2873 19.4414 19.7253 19.4414 20.2652V22.4779ZM23.8315 31.2993V33.5119C23.8315 34.0518 23.3927 34.4899 22.8519 34.4899C22.3112 34.4899 21.8724 34.0518 21.8724 33.5119V31.2993C21.8724 30.7594 22.3112 30.3213 22.8519 30.3213C23.3935 30.3221 23.8315 30.7594 23.8315 31.2993ZM38.4108 6.73623C40.2586 6.73623 41.7626 5.2354 41.7626 3.38984C41.7626 1.54505 40.2593 0.043457 38.4108 0.043457C36.5622 0.043457 35.0589 1.54428 35.0589 3.38984C35.0589 5.23463 36.5629 6.73623 38.4108 6.73623ZM38.4108 1.99931C39.1786 1.99931 39.8036 2.62323 39.8036 3.38984C39.8036 4.15645 39.1786 4.78038 38.4108 4.78038C37.6429 4.78038 37.0179 4.15645 37.0179 3.38984C37.0179 2.62323 37.6429 1.99931 38.4108 1.99931ZM35.8136 30.656C35.8136 33.5651 38.1844 35.9313 41.0975 35.9313C44.0106 35.9313 46.3814 33.5651 46.3814 30.656C46.3814 27.747 44.0106 25.3808 41.0975 25.3808C38.1844 25.3808 35.8136 27.747 35.8136 30.656ZM44.4231 30.656C44.4231 32.487 42.9314 33.9762 41.0975 33.9762C39.2636 33.9762 37.7719 32.487 37.7719 30.656C37.7719 28.8251 39.2636 27.3359 41.0975 27.3359C42.9314 27.3359 44.4231 28.8251 44.4231 30.656ZM59.6907 31.5862C62.5033 31.5862 64.7914 29.3018 64.7914 26.4937C64.7914 23.6856 62.5033 21.4012 59.6907 21.4012C56.878 21.4012 54.5899 23.6856 54.5899 26.4937C54.5899 29.3018 56.878 31.5862 59.6907 31.5862ZM59.6907 23.3563C61.4234 23.3563 62.8332 24.7638 62.8332 26.4937C62.8332 28.2236 61.4234 29.6311 59.6907 29.6311C57.958 29.6311 56.5482 28.2236 56.5482 26.4937C56.5482 24.7638 57.958 23.3563 59.6907 23.3563ZM49.7664 20.512C52.277 20.512 54.3203 18.4729 54.3203 15.9656C54.3203 13.4583 52.2778 11.4192 49.7664 11.4192C47.2558 11.4192 45.2126 13.4583 45.2126 15.9656C45.2126 18.4729 47.255 20.512 49.7664 20.512ZM49.7664 13.375C51.1971 13.375 52.3612 14.5373 52.3612 15.9656C52.3612 17.3939 51.1971 18.5562 49.7664 18.5562C48.3358 18.5562 47.1716 17.3939 47.1716 15.9656C47.1708 14.5365 48.335 13.375 49.7664 13.375ZM60.2584 11.1616C62.1063 11.1616 63.6103 9.66075 63.6103 7.81518C63.6103 5.96962 62.107 4.4688 60.2584 4.4688C58.4106 4.4688 56.9066 5.96962 56.9066 7.81518C56.9066 9.66075 58.4106 11.1616 60.2584 11.1616ZM60.2584 6.42465C61.0263 6.42465 61.6513 7.04858 61.6513 7.81518C61.6513 8.58179 61.0263 9.20572 60.2584 9.20572C59.4906 9.20572 58.8656 8.58179 58.8656 7.81518C58.8656 7.04858 59.4906 6.42465 60.2584 6.42465Z" fill="#DCD3CB"/>
</svg>
