<svg width="69" height="70" viewBox="0 0 69 70" fill="none" xmlns="http://www.w3.org/2000/svg">
<path d="M19.6945 27.0281V22.5188C19.6945 21.9789 20.1285 21.5409 20.6634 21.5409C21.1982 21.5409 21.6322 21.9789 21.6322 22.5188V27.0281C21.6322 27.568 21.1982 28.0061 20.6634 28.0061C20.1285 28.0061 19.6945 27.5688 19.6945 27.0281ZM20.6634 33.5712C20.1285 33.5712 19.6945 34.0093 19.6945 34.5491V39.0585C19.6945 39.5984 20.1285 40.0364 20.6634 40.0364C21.1982 40.0364 21.6322 39.5984 21.6322 39.0585V34.5491C21.6322 34.0093 21.1982 33.5712 20.6634 33.5712ZM68.3611 42.1889V68.0651C68.3611 68.6049 67.9271 69.043 67.3922 69.043H0.96887C0.434005 69.043 0 68.6049 0 68.0651V12.1111C0 11.5712 0.434005 11.1332 0.96887 11.1332H24.8643C25.3992 11.1332 25.8332 11.5712 25.8332 12.1111V41.211H35.4898V37.5083C35.4898 36.9685 35.9238 36.5304 36.4587 36.5304H39.0345C38.7395 35.9913 38.5714 35.3728 38.5714 34.715V27.3444C38.5714 26.8045 39.0054 26.3664 39.5403 26.3664H52.7171C53.2519 26.3664 53.6859 26.8045 53.6859 27.3444V34.715C53.6859 35.3728 53.5178 35.9913 53.2229 36.5304H55.7987C56.3335 36.5304 56.7675 36.9685 56.7675 37.5083V41.211H67.393C67.9279 41.211 68.3611 41.6483 68.3611 42.1889ZM66.4241 43.166H47.0972V46.3165H66.4234L66.4241 43.166ZM42.3078 36.5304H49.9488C50.9406 36.5304 51.7474 35.716 51.7474 34.715V28.3223H40.5092V34.715C40.5092 35.716 41.316 36.5304 42.3078 36.5304ZM37.4276 41.211H54.8298V38.4862H37.4276V41.211ZM25.8332 43.166V49.1369H45.1602V43.166H25.8332ZM1.93774 13.089V29.8107H23.8962V13.089H1.93774ZM23.8962 67.0871V31.7666H1.93774V67.0871H23.8962ZM25.8332 67.0871H45.1602V51.0927H25.8332V67.0871ZM66.4241 67.0871V48.2723H47.0972V67.0871H66.4241ZM33.1494 47.1294H37.8448C38.3796 47.1294 38.8136 46.6913 38.8136 46.1515C38.8136 45.6116 38.3796 45.1735 37.8448 45.1735H33.1494C32.6145 45.1735 32.1805 45.6116 32.1805 46.1515C32.1805 46.6913 32.6145 47.1294 33.1494 47.1294ZM65.158 52.4007V62.8184C65.158 63.3583 64.724 63.7963 64.1892 63.7963H49.4651C48.9302 63.7963 48.4962 63.3583 48.4962 62.8184V52.4007C48.4962 51.8608 48.9302 51.4228 49.4651 51.4228H64.1892C64.7248 51.4236 65.158 51.8608 65.158 52.4007ZM63.2211 53.3786H50.434V61.8413H63.2203L63.2211 53.3786ZM33.0264 19.1871V13.8286H33.0287C33.0287 13.5687 33.1288 13.3142 33.3213 13.126L41.7554 4.88781V1.02088C41.7554 0.481025 42.1894 0.0429688 42.7243 0.0429688H49.5339C50.0687 0.0429688 50.5027 0.481025 50.5027 1.02088V4.88704L58.936 13.126C59.1286 13.3142 59.2287 13.5687 59.2287 13.8286H59.231V19.1871C59.231 19.727 58.797 20.165 58.2621 20.165H33.9945C33.4596 20.1642 33.0264 19.727 33.0264 19.1871ZM57.294 18.2092V14.8058H34.9634V18.2092H57.294ZM43.6924 1.9988V4.32404H48.565V1.9988H43.6924ZM36.3892 12.8507H55.869L49.1419 6.27987H43.1162L36.3892 12.8507ZM37.8448 53.1002H33.1494C32.6145 53.1002 32.1805 53.5383 32.1805 54.0781C32.1805 54.618 32.6145 55.056 33.1494 55.056H37.8448C38.3796 55.056 38.8136 54.618 38.8136 54.0781C38.8129 53.5375 38.3796 53.1002 37.8448 53.1002Z" fill="#0061aa"/>
</svg>
