<svg width="69" height="51" viewBox="0 0 69 51" fill="none" xmlns="http://www.w3.org/2000/svg">
<path d="M68.0222 29.7849H63.2444C65.1563 28.3478 67.2787 25.8456 68.9369 21.4899C69.0726 21.1339 68.9855 20.732 68.7132 20.463C68.4418 20.1941 68.0361 20.1078 67.6767 20.2415C65.0414 21.2263 62.8719 22.4549 61.1914 23.9057C61.0526 21.9399 60.4942 19.5699 59.2162 16.7698C59.0581 16.4229 58.7095 16.2006 58.3255 16.2006C57.9414 16.2006 57.5928 16.4237 57.4347 16.7698C56.1567 19.5699 55.5976 21.9399 55.4596 23.9057C53.779 22.4549 51.6095 21.2263 48.9742 20.2415C48.6148 20.1078 48.2092 20.1941 47.9377 20.463C47.6662 20.732 47.5791 21.1339 47.714 21.4899C49.373 25.8456 51.4946 28.3478 53.4065 29.7849H48.6287C48.0889 29.7849 47.6508 30.2189 47.6508 30.7537V36.0079C47.6508 36.5427 48.0889 36.9766 48.6287 36.9766H49.3622L50.8591 49.2873C50.9185 49.774 51.335 50.14 51.8301 50.14H64.82C65.3144 50.14 65.7316 49.774 65.791 49.2873L67.288 36.9766H68.0214C68.5613 36.9766 68.9994 36.5427 68.9994 36.0079V30.7537C69.0001 30.2189 68.5628 29.7849 68.0222 29.7849ZM61.0903 26.7754C62.2873 25.3215 63.9817 24.057 66.1497 23.0011C64.8571 25.5927 63.239 27.5371 61.4027 28.69C61.0541 28.9093 60.7225 29.0828 60.4132 29.2226C60.6916 28.5609 60.943 27.7472 61.0903 26.7754ZM58.3262 19.7961C59.2602 22.532 59.5039 25.0388 59.0288 27.1391C58.8445 27.9535 58.5769 28.5922 58.3262 29.0621C58.0756 28.5922 57.808 27.9528 57.6236 27.1391C57.1486 25.0388 57.3923 22.5328 58.3262 19.7961ZM50.5028 23.0011C52.6708 24.057 54.3652 25.3215 55.5621 26.7754C55.7102 27.7472 55.9609 28.5609 56.2393 29.2233C55.93 29.0835 55.5984 28.9101 55.2498 28.6908C53.4135 27.5371 51.7954 25.5919 50.5028 23.0011ZM63.9547 48.2032H52.6978L51.3327 36.9766H65.319L63.9547 48.2032ZM67.0451 35.0391H49.6074V31.7225H67.0443L67.0451 35.0391ZM20.7347 24.5934H15.3861L18.2274 14.0896C18.367 13.5731 18.0577 13.0421 17.5356 12.903C17.0142 12.7648 16.4774 13.0711 16.3379 13.5884L13.3609 24.5941H12.0074V4.46366C12.0074 3.92884 11.5693 3.49488 11.0294 3.49488C10.4896 3.49488 10.0523 3.92884 10.0523 4.46366V24.5941H8.35094L4.71765 11.1603C4.57805 10.6438 4.04127 10.3375 3.51992 10.475C2.99856 10.6133 2.68853 11.1443 2.82812 11.6615L6.32645 24.5941H0.977927C0.438062 24.5941 0 25.0281 0 25.5629V39.5101C0 44.0713 2.13401 47.702 6.17066 50.0109C6.3195 50.0957 6.48763 50.1407 6.65962 50.1407H15.053C15.2242 50.1407 15.3931 50.0957 15.5419 50.0109C19.5786 47.702 21.7126 44.0706 21.7126 39.5101V25.5621C21.7126 25.0273 21.2753 24.5934 20.7347 24.5934ZM19.7575 39.5094C19.7575 43.3088 18.0855 46.2328 14.7869 48.2032H6.92647C3.62789 46.2328 1.95585 43.3096 1.95585 39.5094V32.5025H19.7575V39.5094ZM19.7575 30.5657H1.95585V26.5309H19.7575V30.5657ZM44.1964 29.7849H35.4784V25.0617C36.6599 24.8187 38.2656 24.4039 39.3793 23.4557C40.7259 22.3089 41.5758 20.2629 41.5441 18.2428C41.5357 17.7194 41.1099 17.2969 40.5816 17.2893C38.6883 17.2564 36.673 18.0495 35.4784 19.2681V16.821C36.6599 16.578 38.2656 16.1631 39.3793 15.215C40.7259 14.0682 41.5758 12.0221 41.5441 10.0021C41.5357 9.4787 41.1099 9.0562 40.5816 9.04856C40.5477 9.04779 40.5145 9.04779 40.4806 9.04779C38.6204 9.04779 36.653 9.83091 35.4784 11.0274V9.3259C36.056 8.4763 36.9538 7.11558 37.0617 5.7029C37.1774 4.18861 36.4386 2.42907 35.1791 1.21962C34.7997 0.855179 34.1974 0.855179 33.8179 1.21962C32.6024 2.38704 31.8451 4.1825 31.9346 5.68686C32.014 7.02695 32.7598 8.16076 33.4184 9.16163C33.4539 9.21588 33.4878 9.26859 33.5233 9.32208V11.0251C32.3279 9.80799 30.3142 9.01723 28.4223 9.04856C27.894 9.05696 27.4683 9.4787 27.4598 10.0021C27.4282 12.0221 28.2781 14.0682 29.6247 15.215C30.7376 16.1624 32.3418 16.5772 33.5233 16.8202V19.2658C32.3279 18.0487 30.3142 17.258 28.4223 17.2893C27.894 17.2977 27.4683 17.7194 27.4598 18.2428C27.4282 20.2629 28.2781 22.3089 29.6247 23.4557C30.7376 24.4031 32.341 24.818 33.5233 25.0609V29.7849H24.8045C24.2646 29.7849 23.8266 30.2189 23.8266 30.7537V36.0079C23.8266 36.5427 24.2646 36.9766 24.8045 36.9766H25.5379L27.0349 49.2873C27.0943 49.774 27.5107 50.14 28.0059 50.14H40.9958C41.4902 50.14 41.9074 49.774 41.9668 49.2873L43.4638 36.9766H44.1972C44.7371 36.9766 45.1751 36.5427 45.1751 36.0079V30.7537C45.1744 30.2189 44.7363 29.7849 44.1964 29.7849ZM36.7918 20.7098C37.3856 20.0482 38.4268 19.5309 39.4965 19.3247C39.2952 20.3989 38.7816 21.4112 38.1044 21.9873C37.5229 22.4824 36.6075 22.7971 35.7807 23.0057C35.9943 22.1225 36.2728 21.2882 36.7918 20.7098ZM36.7918 12.4691C37.3856 11.8074 38.4268 11.2902 39.4965 11.0839C39.2952 12.1581 38.7816 13.1705 38.1044 13.7465C37.5229 14.2416 36.6075 14.5564 35.7807 14.765C35.9943 13.8818 36.2728 13.0474 36.7918 12.4691ZM30.8988 13.7465C30.2216 13.1705 29.708 12.1581 29.5067 11.0839C30.5764 11.291 31.6176 11.8074 32.2114 12.4691C32.7305 13.0474 33.0089 13.8818 33.2225 14.765C32.3958 14.5564 31.4803 14.2416 30.8988 13.7465ZM30.8988 21.9873C30.2216 21.4112 29.708 20.3989 29.5067 19.3247C30.5764 19.5317 31.6176 20.0482 32.2114 20.7098C32.7305 21.2882 33.0089 22.1225 33.2225 23.0057C32.3958 22.7971 31.4803 22.4824 30.8988 21.9873ZM34.5035 3.46432C34.9254 4.1443 35.1606 4.91672 35.112 5.55774C35.0719 6.08644 34.8043 6.68773 34.4997 7.22636C34.1735 6.67092 33.9189 6.11395 33.8865 5.57378C33.848 4.92971 34.0902 4.14353 34.5035 3.46432ZM40.1289 48.2032H28.872L27.5069 36.9766H41.4932L40.1289 48.2032ZM43.2193 35.0391H25.7816V31.7225H43.2185L43.2193 35.0391Z" fill="#DCD3CB"/>
</svg>
