<svg width="69" height="70" viewBox="0 0 69 70" fill="none" xmlns="http://www.w3.org/2000/svg">
<path d="M68.9915 10.779C69.0763 9.23194 68.5141 7.69718 67.446 6.56347C66.3709 5.42127 64.8592 4.76649 63.2998 4.76649H11.4012V1.02138C11.4012 0.481518 10.9631 0.043457 10.4232 0.043457H5.70019C2.55664 0.043457 0 2.60087 0 5.74442V53.8972C0 57.0407 2.55741 59.5974 5.70019 59.5974H22.2277V66.9218C22.2277 68.0918 23.1794 69.0427 24.3486 69.0427H39.107C40.2769 69.0427 41.2279 68.091 41.2279 66.9218V59.5974H54.298V68.0655C54.298 68.6054 54.736 69.0435 55.2759 69.0435H63.2998C66.4434 69.0435 69 66.486 69 63.3433L68.9915 10.779ZM1.95585 5.74442C1.95585 3.67905 3.6356 1.99931 5.70096 1.99931H9.44607V48.197H5.70096C4.26878 48.197 2.95845 48.7276 1.95585 49.603V5.74442ZM32.3448 45.5617C31.9862 45.2709 31.4725 45.2709 31.1131 45.5617L21.1866 53.6095L20.7022 53.0126L31.4864 44.2691C31.6291 44.1526 31.8342 44.1542 31.9746 44.2714C31.9784 44.2745 31.9823 44.2784 31.9869 44.2814L42.7557 53.0118L42.2713 53.6087L32.3448 45.5617ZM35.5562 67.0884H27.9009V57.7649H35.5562V67.0884ZM39.1077 67.0884H37.5113V56.787C37.5113 56.2471 37.0732 55.8091 36.5334 55.8091H26.9238C26.3839 55.8091 25.9459 56.2471 25.9459 56.787V67.0884H24.3494C24.2584 67.0884 24.1836 67.0143 24.1836 66.9226V53.6967L31.7286 47.5792L39.2736 53.6967V66.9226C39.2736 67.0143 39.1995 67.0884 39.1077 67.0884ZM41.2286 57.6423V55.2823L41.7986 55.7443C41.9999 55.9078 42.2582 55.9841 42.5158 55.9572C42.7734 55.9302 43.0102 55.8021 43.1737 55.6008L44.8897 53.4846C45.2298 53.065 45.1658 52.4496 44.7462 52.1095L33.2232 42.7667C32.3664 42.0541 31.1185 42.0479 30.2532 42.7513L18.7117 52.1095C18.5104 52.273 18.3824 52.5097 18.3554 52.7673C18.3284 53.0249 18.4047 53.2833 18.5682 53.4846L20.2842 55.6008C20.4778 55.8392 20.7593 55.9626 21.0447 55.9626C21.2606 55.9626 21.4789 55.8908 21.6601 55.7443L22.23 55.2823V57.6423H5.7025C3.63714 57.6423 1.95739 55.9626 1.95739 53.8972C1.95739 51.8318 3.63714 50.1521 5.7025 50.1521H10.4255C10.9654 50.1521 11.4035 49.714 11.4035 49.1742V6.72234H63.3013C64.3394 6.72234 65.3066 7.1419 66.0238 7.90387C66.7411 8.66585 67.1012 9.65612 67.0387 10.6927C67.0372 10.7119 67.0372 10.732 67.0372 10.7513L67.0457 59.0475C66.0431 58.1729 64.7335 57.6423 63.3013 57.6423H41.2286ZM63.2998 67.0884H56.2538V59.5981H63.2998C65.3652 59.5981 67.0449 61.2779 67.0449 63.3433C67.0449 65.4086 65.3652 67.0884 63.2998 67.0884ZM63.3484 21.183C63.3484 19.0042 61.5761 17.2319 59.3974 17.2319C57.2186 17.2319 55.4463 19.0042 55.4463 21.183V44.4365C55.4463 44.5815 55.4787 44.7249 55.5412 44.8568L58.6439 51.3807C58.8058 51.7215 59.1498 51.9383 59.5269 51.9383C59.5323 51.9383 59.5377 51.9383 59.5431 51.9383C59.9264 51.9321 60.2704 51.7023 60.4231 51.3513L63.2674 44.8275C63.3214 44.7041 63.3492 44.5714 63.3492 44.4365L63.3484 21.183ZM61.3925 43.4099H57.4006V24.5409H61.3925V43.4099ZM59.3966 19.187C60.4971 19.187 61.3925 20.0824 61.3925 21.183V22.5851H57.4006V21.183C57.4014 20.0824 58.2968 19.187 59.3966 19.187ZM59.4876 48.6027L57.9482 45.3658H60.8997L59.4876 48.6027ZM47.4563 11.2703H18.1626C17.6227 11.2703 17.1846 11.7084 17.1846 12.2482V32.0697C17.1846 32.6096 17.6227 33.0476 18.1626 33.0476H33.9266V39.4527C33.9266 39.9926 34.3646 40.4307 34.9045 40.4307H47.4563C47.9962 40.4307 48.4343 39.9926 48.4343 39.4527V12.2482C48.4343 11.7084 47.9962 11.2703 47.4563 11.2703ZM35.8824 38.4756V32.0705C35.8824 31.5306 35.4444 31.0926 34.9045 31.0926H19.1405V13.2262H29.7372V24.8749H23.8628C23.3229 24.8749 22.8848 25.3129 22.8848 25.8528C22.8848 26.3927 23.3229 26.8307 23.8628 26.8307H30.7152C31.255 26.8307 31.6931 26.3927 31.6931 25.8528V13.2262H33.9274V16.1368C33.9274 16.6767 34.3654 17.1147 34.9053 17.1147C35.4451 17.1147 35.8832 16.6767 35.8832 16.1368V13.2262H46.48V24.8749H35.8832V21.9642C35.8832 21.4244 35.4451 20.9863 34.9053 20.9863C34.3654 20.9863 33.9274 21.4244 33.9274 21.9642V25.8528C33.9274 26.3927 34.3654 26.8307 34.9053 26.8307H46.4792V38.4764L35.8824 38.4756Z" fill="#DCD3CB"/>
</svg>
