<svg width="69" height="70" viewBox="0 0 69 70" fill="none" xmlns="http://www.w3.org/2000/svg">
<path d="M19.6945 27.0286V22.5193C19.6945 21.9794 20.1285 21.5414 20.6634 21.5414C21.1982 21.5414 21.6322 21.9794 21.6322 22.5193V27.0286C21.6322 27.5685 21.1982 28.0065 20.6634 28.0065C20.1285 28.0065 19.6945 27.5693 19.6945 27.0286ZM20.6634 33.5717C20.1285 33.5717 19.6945 34.0098 19.6945 34.5496V39.059C19.6945 39.5988 20.1285 40.0369 20.6634 40.0369C21.1982 40.0369 21.6322 39.5988 21.6322 39.059V34.5496C21.6322 34.0098 21.1982 33.5717 20.6634 33.5717ZM68.3611 42.1894V68.0655C68.3611 68.6054 67.9271 69.0435 67.3922 69.0435H0.96887C0.434005 69.0435 0 68.6054 0 68.0655V12.1116C0 11.5717 0.434005 11.1337 0.96887 11.1337H24.8643C25.3992 11.1337 25.8332 11.5717 25.8332 12.1116V41.2115H35.4898V37.5088C35.4898 36.969 35.9238 36.5309 36.4587 36.5309H39.0345C38.7395 35.9918 38.5714 35.3733 38.5714 34.7154V27.3448C38.5714 26.805 39.0054 26.3669 39.5403 26.3669H52.7171C53.2519 26.3669 53.6859 26.805 53.6859 27.3448V34.7154C53.6859 35.3733 53.5178 35.9918 53.2229 36.5309H55.7987C56.3335 36.5309 56.7675 36.969 56.7675 37.5088V41.2115H67.393C67.9279 41.2115 68.3611 41.6488 68.3611 42.1894ZM66.4241 43.1665H47.0972V46.317H66.4234L66.4241 43.1665ZM42.3078 36.5309H49.9488C50.9406 36.5309 51.7474 35.7165 51.7474 34.7154V28.3228H40.5092V34.7154C40.5092 35.7165 41.316 36.5309 42.3078 36.5309ZM37.4276 41.2115H54.8298V38.4867H37.4276V41.2115ZM25.8332 43.1665V49.1374H45.1602V43.1665H25.8332ZM1.93774 13.0895V29.8112H23.8962V13.0895H1.93774ZM23.8962 67.0876V31.767H1.93774V67.0876H23.8962ZM25.8332 67.0876H45.1602V51.0932H25.8332V67.0876ZM66.4241 67.0876V48.2728H47.0972V67.0876H66.4241ZM33.1494 47.1299H37.8448C38.3796 47.1299 38.8136 46.6918 38.8136 46.1519C38.8136 45.6121 38.3796 45.174 37.8448 45.174H33.1494C32.6145 45.174 32.1805 45.6121 32.1805 46.1519C32.1805 46.6918 32.6145 47.1299 33.1494 47.1299ZM65.158 52.4012V62.8189C65.158 63.3588 64.724 63.7968 64.1892 63.7968H49.4651C48.9302 63.7968 48.4962 63.3588 48.4962 62.8189V52.4012C48.4962 51.8613 48.9302 51.4233 49.4651 51.4233H64.1892C64.7248 51.424 65.158 51.8613 65.158 52.4012ZM63.2211 53.3791H50.434V61.8418H63.2203L63.2211 53.3791ZM33.0264 19.1876V13.8291H33.0287C33.0287 13.5692 33.1288 13.3147 33.3213 13.1265L41.7554 4.8883V1.02137C41.7554 0.481513 42.1894 0.043457 42.7243 0.043457H49.5339C50.0687 0.043457 50.5027 0.481513 50.5027 1.02137V4.88752L58.936 13.1265C59.1286 13.3147 59.2287 13.5692 59.2287 13.8291H59.231V19.1876C59.231 19.7274 58.797 20.1655 58.2621 20.1655H33.9945C33.4596 20.1647 33.0264 19.7274 33.0264 19.1876ZM57.294 18.2097V14.8063H34.9634V18.2097H57.294ZM43.6924 1.99928V4.32453H48.565V1.99928H43.6924ZM36.3892 12.8512H55.869L49.1419 6.28036H43.1162L36.3892 12.8512ZM37.8448 53.1007H33.1494C32.6145 53.1007 32.1805 53.5387 32.1805 54.0786C32.1805 54.6185 32.6145 55.0565 33.1494 55.0565H37.8448C38.3796 55.0565 38.8136 54.6185 38.8136 54.0786C38.8129 53.538 38.3796 53.1007 37.8448 53.1007Z" fill="#DCD3CB"/>
</svg>
