<svg width="69" height="70" viewBox="0 0 69 70" fill="none" xmlns="http://www.w3.org/2000/svg">
<path d="M68.0228 18.8822H62.2116V12.6275C62.2116 12.0877 61.7735 11.6496 61.2337 11.6496H37.1249C36.585 11.6496 36.147 12.0877 36.147 12.6275V18.8822H31.3136V3.83862L34.7264 1.86814C35.1937 1.59821 35.3541 0.99974 35.0842 0.532378C34.8143 0.0650146 34.2166 -0.0954003 33.7484 0.174529L2.59597 18.1611C2.12861 18.431 1.96819 19.0295 2.23812 19.4968C2.41936 19.8107 2.74791 19.9858 3.08571 19.9858C3.25152 19.9858 3.41965 19.9434 3.5739 19.8547L6.71976 18.0384V36.1029H0.977925C0.438061 36.1029 0 36.5409 0 37.0808V68.0655C0 68.6054 0.438061 69.0435 0.977925 69.0435H68.0221C68.5619 69.0435 69 68.6054 69 68.0655V19.8601C69 19.3202 68.5627 18.8822 68.0228 18.8822ZM38.1028 13.6054H60.2557V18.8822H38.1028V13.6054ZM8.67484 16.9094L29.3586 4.9677V36.1029H8.67484V16.9094ZM38.0288 67.0876H1.95585V38.0579H38.028L38.0288 67.0876ZM54.3342 67.0876H44.0244V47.3435H54.3342V67.0876ZM56.2901 67.0876V46.3663C56.2901 45.8265 55.852 45.3884 55.3121 45.3884H43.0464C42.5066 45.3884 42.0685 45.8265 42.0685 46.3663V67.0876H39.9839V37.0808C39.9839 36.5409 39.5458 36.1029 39.0059 36.1029H31.3136V20.838H67.0449V24.7273H37.1249C36.585 24.7273 36.147 25.1653 36.147 25.7052V31.2356C36.147 31.7755 36.585 32.2136 37.1249 32.2136H67.0441V45.3884H59.5022C58.9624 45.3884 58.5243 45.8265 58.5243 46.3663V57.3933C58.5243 57.9332 58.9624 58.3712 59.5022 58.3712H67.0441V67.0884L56.2901 67.0876ZM67.0449 26.6823V30.2577H38.1028V26.6823H67.0449ZM67.0449 47.3435V56.4154H60.4802V47.3435H67.0449ZM26.0261 17.2479H12.0073C11.4675 17.2479 11.0294 17.686 11.0294 18.2258V27.2839C11.0294 27.8237 11.4675 28.2618 12.0073 28.2618H26.0268C26.5667 28.2618 27.0048 27.8237 27.0048 27.2839V18.2258C27.004 17.686 26.5659 17.2479 26.0261 17.2479ZM25.0481 21.7773H19.9942V19.2038H25.0481V21.7773ZM18.0392 19.2038V21.7773H12.9853V19.2038H18.0392ZM12.9845 23.7324H18.0384V26.306H12.9845V23.7324ZM19.9942 26.306V23.7324H25.0481V26.306H19.9942ZM7.67069 57.3771H17.197C17.7368 57.3771 18.1749 56.9391 18.1749 56.3992V43.4195C18.1749 42.8796 17.7368 42.4416 17.197 42.4416H7.67069C7.13083 42.4416 6.69277 42.8796 6.69277 43.4195V56.3992C6.69277 56.9391 7.13083 57.3771 7.67069 57.3771ZM8.64862 44.3974H16.2198V55.4213H8.64862V44.3974ZM22.7869 57.3771H32.3139C32.8538 57.3771 33.2919 56.9391 33.2919 56.3992V43.4195C33.2919 42.8796 32.8538 42.4416 32.3139 42.4416H22.7869C22.247 42.4416 21.809 42.8796 21.809 43.4195V56.3992C21.8097 56.9391 22.247 57.3771 22.7869 57.3771ZM23.7648 44.3974H31.336V55.4213H23.7648V44.3974Z" fill="#DCD3CB"/>
</svg>
