<svg width="76" height="55" viewBox="0 0 76 55" fill="none" xmlns="http://www.w3.org/2000/svg">
<path d="M74.6669 32.1987H69.4224C71.5211 30.6212 73.8509 27.8746 75.671 23.0934C75.82 22.7026 75.7243 22.2614 75.4255 21.9662C75.1275 21.671 74.6822 21.5762 74.2877 21.723C71.3949 22.804 69.0135 24.1526 67.1688 25.7452C67.0165 23.5873 66.4035 20.9858 65.0008 17.9122C64.8272 17.5314 64.4446 17.2874 64.023 17.2874C63.6014 17.2874 63.2187 17.5322 63.0452 17.9122C61.6424 20.9858 61.0287 23.5873 60.8771 25.7452C59.0324 24.1526 56.651 22.804 53.7583 21.723C53.3638 21.5762 52.9185 21.671 52.6205 21.9662C52.3225 22.2614 52.2268 22.7026 52.375 23.0934C54.196 27.8746 56.5249 30.6212 58.6235 32.1987H53.379C52.7864 32.1987 52.3056 32.675 52.3056 33.2621V39.0295C52.3056 39.6166 52.7864 40.0929 53.379 40.0929H54.1841L55.8273 53.6062C55.8925 54.1404 56.3496 54.5421 56.8931 54.5421H71.152C71.6946 54.5421 72.1526 54.1404 72.2178 53.6062L73.861 40.0929H74.6661C75.2587 40.0929 75.7396 39.6166 75.7396 39.0295V33.2621C75.7404 32.675 75.2604 32.1987 74.6669 32.1987ZM67.0579 28.8952C68.3718 27.2992 70.2318 25.9113 72.6115 24.7522C71.1926 27.597 69.4165 29.7313 67.4008 30.9969C67.0182 31.2376 66.6541 31.4279 66.3147 31.5814C66.6203 30.8551 66.8962 29.962 67.0579 28.8952ZM64.0238 21.2341C65.049 24.2373 65.3165 26.9889 64.7951 29.2944C64.5927 30.1884 64.299 30.8895 64.0238 31.4053C63.7487 30.8895 63.4549 30.1876 63.2526 29.2944C62.7311 26.9889 62.9986 24.2381 64.0238 21.2341ZM55.4362 24.7522C57.8159 25.9113 59.6758 27.2992 60.9897 28.8952C61.1522 29.962 61.4274 30.8551 61.733 31.5823C61.3935 31.4288 61.0295 31.2384 60.6468 30.9977C58.6312 29.7313 56.855 27.5961 55.4362 24.7522ZM70.2021 52.4161H57.8455L56.3471 40.0929H71.6997L70.2021 52.4161ZM73.5943 37.9661H54.4533V34.3255H73.5935L73.5943 37.9661ZM22.7601 26.5H16.8891L20.0079 14.9702C20.1611 14.4032 19.8217 13.8204 19.2485 13.6677C18.6763 13.5159 18.087 13.8522 17.9338 14.42L14.666 26.5008H13.1803V4.40393C13.1803 3.81687 12.6995 3.34052 12.1068 3.34052C11.5142 3.34052 11.0342 3.81687 11.0342 4.40393V26.5008H9.1667L5.17849 11.7547C5.02526 11.1878 4.43605 10.8515 3.86376 11.0025C3.29148 11.1543 2.95116 11.7371 3.10439 12.3049L6.94444 26.5008H1.07346C0.480854 26.5008 0 26.9772 0 27.5643V42.8739C0 47.8807 2.34247 51.866 6.77344 54.4004C6.93682 54.4935 7.12138 54.543 7.31016 54.543H16.5234C16.7114 54.543 16.8968 54.4935 17.0602 54.4004C21.4911 51.866 23.8336 47.8798 23.8336 42.8739V27.5634C23.8336 26.9764 23.3536 26.5 22.7601 26.5ZM21.6875 42.8731C21.6875 47.0437 19.8521 50.2532 16.2314 52.4161H7.60308C3.98228 50.2532 2.14691 47.0445 2.14691 42.8731V35.1818H21.6875V42.8731ZM21.6875 33.0558H2.14691V28.6268H21.6875V33.0558ZM48.5137 32.1987H38.9441V27.0141C40.241 26.7474 42.0036 26.292 43.2261 25.2512C44.7042 23.9924 45.6371 21.7465 45.6024 19.5291C45.5931 18.9546 45.1258 18.4908 44.5459 18.4824C42.4675 18.4464 40.2554 19.3169 38.9441 20.6546V17.9683C40.241 17.7017 42.0036 17.2463 43.2261 16.2055C44.7042 14.9467 45.6371 12.7008 45.6024 10.4833C45.5931 9.90887 45.1258 9.44509 44.5459 9.4367C44.5086 9.43587 44.4722 9.43587 44.435 9.43587C42.393 9.43587 40.2334 10.2955 38.9441 11.6088V9.74114C39.5782 8.80855 40.5636 7.3149 40.6821 5.76423C40.8091 4.10201 39.9981 2.17059 38.6156 0.842998C38.1991 0.442959 37.5379 0.442959 37.1214 0.842998C35.7872 2.12446 34.9559 4.09531 35.0541 5.74662C35.1413 7.21762 35.9599 8.46219 36.6829 9.56083C36.7218 9.62037 36.7591 9.67824 36.798 9.73694V11.6063C35.4858 10.2703 33.2754 9.40232 31.1988 9.4367C30.6189 9.44593 30.1516 9.90887 30.1423 10.4833C30.1075 12.7008 31.0405 14.9467 32.5186 16.2055C33.7402 17.2454 35.5011 17.7008 36.798 17.9675V20.6521C35.4858 19.3161 33.2754 18.4481 31.1988 18.4824C30.6189 18.4917 30.1516 18.9546 30.1423 19.5291C30.1075 21.7465 31.0405 23.9924 32.5186 25.2512C33.7402 26.2912 35.5002 26.7466 36.798 27.0133V32.1987H27.2275C26.6349 32.1987 26.154 32.675 26.154 33.2621V39.0295C26.154 39.6166 26.6349 40.0929 27.2275 40.0929H28.0326L29.6758 53.6062C29.741 54.1404 30.1981 54.5421 30.7416 54.5421H45.0005C45.5431 54.5421 46.0011 54.1404 46.0663 53.6062L47.7095 40.0929H48.5146C49.1072 40.0929 49.5881 39.6166 49.5881 39.0295V33.2621C49.5872 32.675 49.1063 32.1987 48.5137 32.1987ZM40.3858 22.2371C41.0377 21.5108 42.1805 20.9431 43.3547 20.7166C43.1338 21.8958 42.57 23.007 41.8267 23.6393C41.1884 24.1828 40.1835 24.5283 39.2759 24.7573C39.5104 23.7878 39.8161 22.872 40.3858 22.2371ZM40.3858 13.1914C41.0377 12.4651 42.1805 11.8973 43.3547 11.6709C43.1338 12.85 42.57 13.9613 41.8267 14.5936C41.1884 15.137 40.1835 15.4826 39.2759 15.7115C39.5104 14.742 39.8161 13.8262 40.3858 13.1914ZM33.9171 14.5936C33.1738 13.9613 32.61 12.85 32.3891 11.6709C33.5633 11.8982 34.7061 12.4651 35.358 13.1914C35.9277 13.8262 36.2334 14.742 36.4679 15.7115C35.5603 15.4826 34.5554 15.137 33.9171 14.5936ZM33.9171 23.6393C33.1738 23.007 32.61 21.8958 32.3891 20.7166C33.5633 20.9439 34.7061 21.5108 35.358 22.2371C35.9277 22.872 36.2334 23.7878 36.4679 24.7573C35.5603 24.5283 34.5554 24.1828 33.9171 23.6393ZM37.874 3.30697C38.3371 4.05337 38.5953 4.90125 38.542 5.60489C38.4979 6.18524 38.2042 6.84526 37.8698 7.43651C37.5117 6.82681 37.2323 6.21543 37.1968 5.6225C37.1544 4.91551 37.4202 4.05253 37.874 3.30697ZM44.0489 52.4161H31.6923L30.1939 40.0929H45.5465L44.0489 52.4161ZM47.4411 37.9661H28.3001V34.3255H47.4403L47.4411 37.9661Z" fill="#0061aa"/>
</svg>
